<?xml version="1.0" encoding="UTF-8"?>
<svg width="6.167" height="6.167" version="1.1" viewBox="0 0 6.1669598 6.16696" xmlns="http://www.w3.org/2000/svg">
	<g transform="translate(-23.375 -124.53)">
		<path d="m27.199 127.34c-0.2132-0.47366-0.62788-0.0222-0.73184 0.28282-0.26413 0.48638-0.5796 0.94968-0.80946 1.4515 0.04988 0.56702 0.6257 0.25109 0.70581-0.11365 0.27548-0.50524 0.6006-0.98802 0.84314-1.5082zm-0.19549 0.12312c-0.34046 0.574-0.65322 1.1692-1.011 1.7299-0.30968-0.0398 0.05994-0.39754 0.12166-0.57121 0.25632-0.42747 0.48433-0.87673 0.75844-1.2905 0.07786-0.0501 0.18335 0.0499 0.13091 0.13178zm1.9639 0.5639c-0.36128-0.32364-0.68866-0.69109-1.0729-0.98508-0.60472-0.0666-0.33789 0.58397-0.0054 0.75936 0.15107 0.14311 0.30214 0.28623 0.4532 0.42934-0.26612 0.25557-0.57185 0.47489-0.81044 0.75564-0.11828 0.58175 0.53438 0.40949 0.73112 0.0905 0.25243-0.24353 0.5455-0.45015 0.76853-0.72037 0.05173-0.10877 0.0243-0.24789-0.06412-0.32943zm-0.13447 0.28146c-0.3507 0.29249-0.66762 0.64035-1.0398 0.89754-0.23729-0.16591 0.20253-0.35531 0.31395-0.50647 0.15171-0.15971 0.36378-0.27502 0.47366-0.4655-0.23428-0.3188-0.57661-0.56277-0.85391-0.85177-1.73e-4 -0.37114 0.36081 0.0936 0.50086 0.20925 0.2054 0.2204 0.47487 0.39646 0.63733 0.64658zm-3.4215-0.9883c-0.09377-0.54484-0.60706-0.17169-0.80673 0.085-0.23758 0.24294-0.51632 0.45058-0.72382 0.71932-0.08025 0.35334 0.33214 0.5054 0.52735 0.73358 0.23896 0.17754 0.41997 0.46453 0.71439 0.54049 0.55423-0.11866 0.14436-0.6198-0.13512-0.79742-0.09221-0.13944-0.43773-0.27527-0.36497-0.41705 0.25078-0.25471 0.54035-0.47575 0.76407-0.75394zm-0.22255 0.0621c-0.27462 0.26017-0.54924 0.52033-0.82386 0.7805-0.04144 0.23449 0.29605 0.34948 0.43067 0.52519 0.11694 0.16483 0.50108 0.29484 0.36631 0.50977-0.2244-0.0412-0.3685-0.29098-0.55741-0.42234-0.17822-0.18382-0.41755-0.32268-0.55392-0.53729 0.23802-0.32236 0.58414-0.56985 0.86517-0.86242 0.07278-0.1125 0.36613-0.29146 0.27304 7e-3zm-0.88786-2.4899c-0.69248-9e-4 -0.35006 1.1285 0.22594 0.73964 0.33054-0.20445 0.16229-0.75439-0.22594-0.73964zm0 0.61623c-0.60612-0.15487 0.28798-0.74846 0.19516-0.12946-0.03161 0.0769-0.11175 0.13067-0.19516 0.12946zm1.1298-0.61623c-0.69248-9e-4 -0.35006 1.1285 0.22594 0.73964 0.33054-0.20445 0.16229-0.75438-0.22594-0.73964zm0 0.61623c-0.60612-0.15487 0.28798-0.74846 0.19516-0.12946-0.03162 0.0769-0.11175 0.13067-0.19516 0.12946zm1.1298-0.61623c-0.69248-9e-4 -0.35006 1.1285 0.22594 0.73964 0.33054-0.20445 0.16229-0.75439-0.22594-0.73964zm0 0.61623c-0.60612-0.15487 0.28798-0.74846 0.19516-0.12946-0.03161 0.0769-0.11175 0.13067-0.19516 0.12946zm2.4649-0.51353c-0.41037-0.0911-0.25588 0.33889 0.06809 0.16438 0.06191-0.0548 0.01443-0.1694-0.06809-0.16438zm-0.51353 0c-0.3975 0.0184-0.80968-0.037-1.1979 0.0282-0.03725 0.28706 0.41262 0.11976 0.60944 0.16438 0.21736-0.0168 0.44837 0.035 0.6565-0.0282 0.06191-0.0548 0.01443-0.16941-0.06809-0.16438zm0.92434-0.41081h-5.9569c-0.18926 0.13731-0.05674 0.45374-0.09629 0.67146v5.279c0.13732 0.18926 0.45375 0.0567 0.67148 0.0963h5.3817c0.18926-0.13732 0.05674-0.45375 0.09629-0.67148v-5.279l-0.02821-0.0681zm-0.09628 5.8542h-5.7643v-4.4292h5.7643c8e-6 1.4764-1.2e-5 2.9528 1.2e-5 4.4292zm0-4.6218h-5.7643v-1.0399h5.7643c8e-6 0.34662-1.2e-5 0.69328 1.2e-5 1.0399z" fill="#fff"/>
	</g>
</svg>
