<?xml version="1.0" encoding="UTF-8"?>
<svg width="6.6768" height="6.6768" version="1.1" viewBox="0 0 6.6767903 6.6767903" xmlns="http://www.w3.org/2000/svg">
	<g transform="translate(-120.64 -137.94)">
		<path d="m126.04 141.43c-0.3825 0.99496-0.76499 1.9899-1.1475 2.9849m-4.0262-4.9329c1.7246 0.64933 3.4491 1.2986 5.1737 1.948 0.35191-0.95804 0.70382-1.9161 1.0557-2.8741-1.4168-0.14298-2.8336-0.28596-4.2504-0.42894-3e-3 1.2446-5e-3 2.4892-8e-3 3.7339 1.0419-0.15664 2.0838-0.31327 3.1257-0.46991-1.0393-1.088-2.0786-2.176-3.1178-3.264m1.3e-4 0c-0.65966 0.45169-1.3193 0.90338-1.979 1.3551 1.3421 1.6443 2.6842 3.2886 4.0262 4.9329-0.68241-2.096-1.3648-4.192-2.0472-6.2879z" fill="none" stroke="#fff" stroke-linecap="round" stroke-linejoin="round" stroke-width=".38432" style="paint-order:markers fill stroke"/>
	</g>
</svg>
