<?xml version="1.0" encoding="UTF-8"?>
<svg enable-background="new 0 0 1000 1000" version="1.1" viewBox="0 0 1000 1000" xml:space="preserve" xmlns="http://www.w3.org/2000/svg"><path d="m764.5 474.5l7.6 134.4c1.1 19.6-10.5 37.7-34.9 54.4s-57.7 30-100 39.8c-42.2 9.8-88 14.7-137.4 14.7-49.3 0-95.1-4.9-137.4-14.7-42.2-9.8-75.6-23-100-39.8-24.4-16.7-36-34.9-34.9-54.4l7.6-134.4 244.2 77c6.2 2 13 3 20.4 3s14.2-1 20.4-3l244.4-77zm225.5-137.8c0 6.5-3.1 10.9-9.4 13.2l-476.4 149.7c-1.1 0.3-2.6 0.4-4.2 0.4-1.7 0-3.1-0.1-4.2-0.4l-277.3-87.6c-12.2 9.6-22.3 25.4-30.2 47.4s-12.7 47.3-14.5 75.9c17.9 10.2 26.8 25.7 26.8 46.4 0 19.6-8.2 34.7-24.7 45.5l24.7 184.2c0.6 4-0.6 7.5-3.4 10.6-2.6 3.1-6 4.7-10.2 4.7h-81.7c-4.2 0-7.6-1.6-10.2-4.7-2.8-3.1-4-6.7-3.4-10.6l24.7-184.2c-16.4-10.8-24.7-26-24.7-45.5 0-20.7 9.2-36.4 27.7-47.2 3.1-58.7 17-105.5 41.7-140.4l-141.7-44.3c-6.2-2.3-9.4-6.7-9.4-13.2s3.1-10.9 9.4-13.2l476.4-149.7c1.1-0.3 2.6-0.4 4.2-0.4 1.7 0 3.1 0.1 4.2 0.4l476.4 149.7c6.3 2.4 9.4 6.8 9.4 13.3z" fill="#fff"/></svg>
