<?xml version="1.0" encoding="UTF-8"?>
<svg width="7.212" height="7.212" version="1.1" viewBox="0 0 7.21204 7.2120402" xmlns="http://www.w3.org/2000/svg">
	<g transform="translate(-61.022 -144.09)">
		<path d="m64.076 148.33c-0.20996 0.0775-0.3748 0.27192-0.41425 0.48894-0.05917 0.32122 0.2536 0.68197 0.59315 0.68197 0.34095 0 0.65231-0.36067 0.59175-0.68757-0.03378-0.18736-0.18177-0.3748-0.36207-0.46215-0.10987-0.0521-0.29731-0.062-0.40858-0.0212zm0.28038 0.28325c0.07043 0.0197 0.13666 0.0775 0.16764 0.14792 0.03525 0.0747 0.03378 0.20716 0 0.28318-0.09442 0.20708-0.44383 0.20708-0.53825 0-0.03098-0.069-0.03525-0.21415-0.0071-0.28039 0.05497-0.12819 0.21982-0.19442 0.37767-0.15071zm-1.926-0.72142c-0.10568 0.0521-0.19163 0.14093-0.24094 0.24653-0.15358 0.33816 0.23674 0.72701 0.57342 0.57063 0.17191-0.0789 0.28885-0.248 0.28605-0.41285-0.0014-0.10987-0.0521-0.22401-0.13806-0.30857-0.09155-0.0888-0.1775-0.12679-0.29731-0.13246-0.08595-4e-3 -0.10995 2e-3 -0.18317 0.0367zm0.25919 0.27759c0.04931 0.024 0.05777 0.0451 0.05777 0.13526 0 0.0972-0.04224 0.13953-0.13946 0.13953-0.03805 0-0.08029-4e-3 -0.09302-8e-3 -0.03378-0.0141-0.06344-0.0817-0.06344-0.14652 7.3e-5 -0.11562 0.12547-0.17898 0.23814-0.11981zm3.8422-0.90738c-0.15918 0.038-0.34235 0.19303-0.41844 0.35647-0.13526 0.29025 0.0057 0.6312 0.3255 0.78199 0.06763 0.0325 0.09582 0.0366 0.21842 0.0366 0.12967 0 0.14932-4e-3 0.23674-0.0451 0.1282-0.0606 0.2494-0.18177 0.30997-0.30996 0.04084-0.0874 0.04504-0.10708 0.04504-0.23675 0-0.1226-0.0042-0.15079-0.03665-0.21842-0.1296-0.27471-0.41425-0.42683-0.68057-0.36486zm0.28745 0.32262c0.15925 0.0817 0.19163 0.34662 0.05777 0.48048-0.13239 0.13386-0.39872 0.10288-0.47908-0.0564-0.09162-0.1775-0.01693-0.39026 0.15498-0.44663 0.07757-0.0239 0.1931-0.0154 0.26633 0.0225zm-1.7612-0.47481c-0.13806 0.038-0.27192 0.16345-0.32402 0.30298-0.07609 0.20009 0.03098 0.43257 0.24653 0.53964 0.08316 0.0408 0.10001 0.0437 0.19443 0.038 0.1254-8e-3 0.22541-0.0564 0.30717-0.14932 0.16484-0.18744 0.16345-0.40438-0.0028-0.58755-0.11841-0.12827-0.28038-0.18325-0.42131-0.1438zm0.20569 0.3241c0.03238 0.0282 0.03945 0.0451 0.03945 0.10288 0.0014 0.0901-0.03098 0.14232-0.09721 0.15498-0.1282 0.024-0.1987-0.031-0.19583-0.15498 0.0014-0.093 0.04651-0.13526 0.14652-0.13526 0.05218 0 0.07896 8e-3 0.10708 0.0324zm-0.39165-2.2656c-0.18037 0.0662-0.30997 0.24234-0.31276 0.42271-0.0028 0.22828 0.21842 0.44942 0.44942 0.44942 0.10847 0 0.21695-0.0479 0.30577-0.13666 0.08735-0.0888 0.1296-0.1775 0.13526-0.29451 0.0057-0.0789 0-0.10707-0.03098-0.1761-0.07749-0.16904-0.24653-0.28745-0.40998-0.28458-0.04658 0-0.10855 0.01-0.13673 0.0197zm0.24373 0.31556c0.03238 0.0324 0.04084 0.0536 0.04084 0.10001 0 0.10987-0.04364 0.15359-0.15219 0.15499-0.10428 0-0.14372-0.0395-0.14372-0.14513 0-0.10847 0.04084-0.14931 0.15219-0.15079 0.04938 8e-5 0.0691 9e-3 0.10288 0.0409zm-0.33528-1.3723c-0.04092 0.0297-3.3618 3.6534-3.3745 3.6816-0.0057 0.0127-0.0099 0.27619-0.0099 0.58476-0.0014 0.65658-0.0057 0.63406 0.1226 0.69882 0.04651 0.0226 0.10001 0.0606 0.11973 0.0846 0.08029 0.0958 0.07889 0.28458-0.0014 0.37899-0.02112 0.0254-0.0733 0.0634-0.11554 0.0846-0.13246 0.0648-0.1268 0.0268-0.1268 0.83835 0 0.76933 0.0014 0.77632 0.08316 0.81863 0.02252 0.0127 0.05637 0.0225 0.07469 0.0225 0.05358-1e-3 1.4921-0.57063 1.5273-0.6044 0.0521-0.0507 0.05777-0.11694 0.01406-0.19024-0.07043-0.11973-0.03665-0.23667 0.07469-0.25499 0.10847-0.0183 0.18457 0.0422 0.18457 0.14792 0 0.0268 0.01553 0.0592 0.04084 0.0873 0.03525 0.0394 0.0507 0.0465 0.10288 0.0451 0.04511 0 0.58608-0.20569 2.1247-0.80737 1.1356-0.44383 2.0937-0.81863 2.1289-0.83408 0.11834-0.0521 0.11134 0.0155 0.11134-1.0553v-0.94682l-0.04791-0.0479c-0.03665-0.0367-0.05917-0.0479-0.09861-0.0479-0.06057 0-0.1282-0.031-0.14085-0.0634-0.0042-0.0127-0.0085-0.055-0.0085-0.093 0-0.086 0.04364-0.13946 0.11274-0.13946 0.06763 0 0.13666-0.0353 0.16065-0.0832 0.01972-0.0352 0.02252-0.10847 0.02252-0.45788v-0.41705l-0.03805-0.0408c-0.02819-0.0296-0.41704-0.21982-1.3498-0.66078-0.71994-0.34095-1.3723-0.64951-1.447-0.68476-0.14387-0.0691-0.19737-0.0776-0.24668-0.0438zm1.316 0.88207c0.65658 0.31136 1.199 0.56923 1.2061 0.57482 0.0071 7e-3 -4.789 1.7724-5.2019 1.9162-0.01126 3e-3 0.61007-0.6819 1.3808-1.5244 0.77072-0.84115 1.4047-1.5301 1.4104-1.5301 0.0056-1e-3 0.54796 0.2536 1.2046 0.56357zm1.4695 1.02v0.20289l-0.07462 0.0479c-0.20289 0.12959-0.27898 0.3522-0.18884 0.5481 0.03945 0.0874 0.1296 0.18457 0.21275 0.22968l0.05071 0.0282-0.0028 0.78757-0.0043 0.78905-1.9767 0.77205-1.9768 0.77072-0.08316-0.0846c-0.10847-0.11134-0.18596-0.14652-0.32402-0.14652-0.124 0-0.19023 0.0296-0.29731 0.1296-0.10001 0.0944-0.14512 0.19443-0.14512 0.32689l-0.0014 0.10708-0.51426 0.20009c-0.28318 0.11135-0.51852 0.20149-0.52412 0.20149-0.0071 0-0.01126-0.23527-0.01126-0.52271v-0.52272l0.09155-0.0874c0.27192-0.26345 0.26773-0.63119-0.01126-0.89045l-0.08029-0.0747 0.0028-0.43956 0.0042-0.43816 2.9166-1.068c1.6048-0.58755 2.9208-1.0694 2.9278-1.0694 0.0056-1e-3 0.0098 0.0901 0.0098 0.2029z" fill="#fff"/>
	</g>
</svg>
