<?xml version="1.0" encoding="UTF-8"?>
<svg width="7.3267" height="7.3267" version="1.1" viewBox="0 0 7.3266502 7.3266505" xmlns="http://www.w3.org/2000/svg">
	<g transform="translate(-28.843 -132.56)">
		<path d="m32.721 136.87v0.21549h-0.43098v0.43098h0.43098v0.43098h0.43098v-0.43098h-0.43098v-0.43098h0.43098v-0.43098h-0.43098zm-1.7239-1.2929v0.21549h0.43098v0.86195h-0.43098v0.43098h0.43098v-0.43098h0.43098v-0.86195h-0.43098v-0.43098h-0.43098zm3.0169-0.21549v0.43098h0.43098v-0.86196h-0.43098zm-1.7239-0.21549v0.64647h0.43098v0.43097h0.43098v-0.43097h-0.43098v-1.2929h-0.43098zm-0.86196-1.2929v0.21549h-0.86196v0.43098h-0.43098v0.43098h-0.86196v0.43098h-0.43098v1.2929h0.43098v0.43098h0.43098v0.86196h0.43098v0.43098h0.86196v0.43098h2.1549v-0.43098h2.1549v-0.43098h0.43098v-0.86196h0.43098v-0.43098h-0.43098v-0.43098h-0.43098v-1.2929h-0.43098v-0.43098h-0.43098v-0.43098h-0.43098v-0.43098h-2.5859zm1.2929 0.43098v0.21549h0.43098v-0.43098h0.86196v0.43098h0.43098v0.43098h0.43098v1.2929h-1.7239v0.43098h2.5859v0.43098h-2.5859v0.43098h2.1549v0.43098h-2.1549v0.43098h-2.1549v-0.43098h-0.86196v-0.43098h0.86196v-0.43098h-1.2929v-0.43098h-0.43098v-1.2929h1.7239v-0.43098h-0.43098v-0.43098h0.86196v-0.43098h1.2929z" fill="#fff"/>
	</g>
</svg>
