<?xml version="1.0" encoding="UTF-8"?>
<svg width="7.541" height="7.541" version="1.1" viewBox="0 0 7.54104 7.6441822" xmlns="http://www.w3.org/2000/svg">
	<g transform="translate(-60.107 -159.75)">
		<g transform="matrix(.00076949 0 0 -.00076949 60.03 163.66)" fill="#fff">
			<path d="m7471.2 4912.6c-676.6-123-1293.6-561.3-1605-1141.7-42.3-78.8-136.5-321-211.4-538.2-73-217.2-153.8-444-180.7-505.5l-44.2-111.5-257.5 205.7c-888 705.4-1751 1195.5-2421.9 1374.3-128.8 34.6-217.2 44.2-415.2 44.2-249.9 1.9-251.8 1.9-384.4-65.4-369-188.4-444-620.8-226.8-1299.3 67.3-217.2 263.3-640.1 411.3-891.9 44.2-76.9 76.9-140.3 73-142.2-1.9-3.8-98-51.9-211.4-105.7-926.4-449.8-1587.6-1286-1810.5-2291.2-303.7-1374.3 205.7-2739 1324.3-3544.4 205.7-149.9 640.1-367.1 893.8-451.7 855.3-278.7 1806.8-215.3 2606.4 174.9 670.8 326.8 1199.4 855.3 1537.7 1535.8 59.6 121.1 111.5 223 113.4 226.8 3.8 3.8 103.8-50 223-115.3 905.3-503.6 1599.2-624.7 1956.7-342.1 388.3 307.5 284.5 1062.9-286.4 2085.5-176.8 321-517.1 828.4-788.1 1178.3l-211.4 274.9 73 30.8c144.2 61.5 461.3 174.9 676.6 242.2 386.3 121.1 661.2 286.4 934.1 561.3 545.9 551.7 784.2 1385.8 597.8 2106.6-171.1 657.4-690 1216.7-1332 1432-309.6 103.5-709.3 132.3-1034.2 72.8zm626.6-361.4c317.1-61.5 603.5-207.6 845.7-432.5 274.9-255.6 442.1-522.8 538.2-857.3 61.5-213.3 59.6-618.9-1.9-845.7-75-280.6-224.9-549.7-422.9-765-236.4-255.6-497.8-407.5-972.6-561.3-828.4-272.8-1347.3-545.8-1722.1-907.1l-167.3-161.5-84.6 92.3c-294.1 324.8-618.9 661.2-849.6 882.2l-267.1 255.7 151.8 159.5c353.7 374.8 586.2 818.8 893.8 1703 173 499.7 259.5 659.3 486.3 901.5 284.5 301.8 640.1 488.2 1049.5 549.7 117.3 19.2 394 11.5 522.8-13.5zm-5537.6-684.3c409.4-76.9 1074.4-413.2 1716.4-868.8 405.6-288.3 949.5-722.7 951.4-759.2 1.9-32.7-136.5-257.6-240.3-392.1-130.7-169.2-315.2-326.8-507.4-430.6l-176.8-94.2 84.6-78.8c46.1-42.3 234.5-215.3 417.1-384.4 365.2-336.3 841.9-832.2 1189.8-1239.7 121.1-142.2 232.6-271 246-286.4 19.2-21.2 38.4 1.9 105.7 134.5 103.8 209.5 171.1 303.7 301.8 434.4 105.7 103.8 490.1 371 530.5 371 25-1.9 371-442.1 613.1-778.5 246-344.1 459.4-695.8 626.6-1028.3 334.4-672.7 376.7-1074.5 130.7-1257.1-48.1-34.6-80.7-40.4-249.9-40.4-174.9 1.9-219.1 9.6-403.6 73-730.4 249.9-1649.2 849.6-2675.6 1745.3-320.9 278.8-1130.1 1088-1412.6 1410.9-1207.1 1382-1952.9 2721.7-1808.7 3248.4 51.9 194.1 263.3 276.8 561.2 221zm-1.9-2548.7c63.4-90.3 115.3-167.2 111.5-169.1s-48.1-21.1-101.9-40.4c-249.9-90.3-545.9-267.2-778.5-463.2-444-374.8-757.3-941.8-855.3-1555-32.7-203.7-36.5-580.5-7.7-788.1 101.9-734.2 501.7-1380.1 1101.4-1779.9 284.5-192.2 545.9-303.7 895.7-384.4 232.6-55.7 736.2-69.2 980.3-28.8 741.9 121.1 1366.6 517 1758.7 1116.7 111.5 169.1 215.3 369.1 269.1 519 19.2 53.8 38.4 98 40.4 101.9 7.7 11.5 334.5-230.7 334.5-247.9 0-40.4-192.2-422.9-278.7-557.4-284.5-438.3-695.8-813.1-1164.8-1055.2-1107.1-572.8-2418-407.5-3357.9 426.7-818.9 726.5-1187.9 1802.8-974.6 2850.4 76.9 376.7 267.2 811.1 495.9 1137.9 173 244.1 538.2 603.5 772.7 759.2 178.7 119.2 567 322.9 618.9 322.9 11.5 0 75-74.9 140.3-165.3zm557.4-738.1c563.2-697.7 1445.4-1587.7 2172-2193.1 132.6-109.6 265.2-217.2 294.1-238.3l53.8-38.4-42.3-124.9c-257.5-790-961-1385.8-1779.9-1508.9-451.7-67.3-845.7-5.8-1264.7 201.8-259.5 126.8-397.9 224.9-599.7 424.8-199.9 194.1-319.1 359.4-447.8 622.8-247.9 503.6-296 1014.9-142.2 1543.4 163.4 561.3 576.6 1074.5 1087.9 1349.3 138.4 73 451.7 196.1 478.6 186.4 7.6-1.9 92.2-103.8 190.2-224.9z"/>
			<path d="m7407.8 3963c-207.6-53.8-384.4-153.8-559.3-315.2-148-136.5-176.8-251.8-90.3-353.7 57.7-69.2 134.6-90.3 213.3-61.5 30.8 11.5 113.4 76.9 184.5 146.1 82.6 78.8 174.9 146.1 259.5 186.4 115.3 53.8 149.9 61.5 296 61.5 149.9 0 174.9-5.8 307.5-71.1 94.2-46.1 186.5-111.5 261.4-186.4 63.4-65.3 140.3-124.9 171.1-136.5 124.9-48.1 257.6 53.8 257.6 198 0 75-9.6 90.3-142.2 215.3-321.1 305.6-753.5 422.9-1159.1 317.1z"/>
		</g>
	</g>
</svg>
