<?xml version="1.0" encoding="UTF-8"?>
<svg width="22.843" height="22.843" version="1.1" viewBox="0 0 6.0439406 6.0439406" xmlns="http://www.w3.org/2000/svg">
	<g transform="translate(-58.249 -129.07)" stroke="#fff">
		<path d="m58.502 132.4-0.02043 1.5657c3.5e-5 0.44625 0.4597 0.99457 0.87814 1.0124 0.50842 5e-3 1.6669-4e-3 1.6669-4e-3l0.0048-2.5643z" fill="#fff" stroke-width=".2805"/>
		<path d="m64.076 129.21 0.01212 2.6039-2.6194 0.0183-2e-6 -1.3689c0-0.75963 0.28559-1.2268 1.0186-1.235 0.87326-0.01 1.5886-0.0183 1.5886-0.0183zm-5.6102 0-0.01212 2.6039 2.6194 0.0183 3e-6 -1.3689c0-0.75963-0.28559-1.2268-1.0186-1.235-0.87326-0.01-1.5886-0.0183-1.5886-0.0183zm5.5732 3.1857 0.02043 1.5657c-3.5e-5 0.44625-0.4597 0.99457-0.87814 1.0124-0.50842 5e-3 -1.6669-4e-3 -1.6669-4e-3l-0.0048-2.5643z" fill="none" stroke-width=".27529"/>
	</g>
</svg>
