<?xml version="1.0" encoding="UTF-8"?>
<svg width="27.479" height="53.682" version="1.1" viewBox="0 0 27.478692 53.681932" xmlns="http://www.w3.org/2000/svg">
	<g transform="translate(-55.052 -86.685)">
		<path d="m68.873 127.32v-9.1898m-13.319-8.9109 2.3156 4.3067-2.3156 4.4188h24.322l2.3156-4.4188-2.3156-4.3067zm13.319 3.0065a1.3564 1.3564 0 0 1 1.3565 1.356 1.3564 1.3564 0 0 1 -1.3565 1.3565 1.3564 1.3564 0 0 1 -1.3565 -1.3565 1.3564 1.3564 0 0 1 1.3565 -1.356zm0 15.094c-1.8708 1.0282-3.7258 2.0875-5.5614 3.176-0.03519 2.1168-0.03519 4.2353 0 6.3521 1.8356 1.0885 3.6906 2.1483 5.5614 3.1766 1.8708-1.0282 3.7258-2.088 5.5614-3.1766 0.0352-2.1165 0.0352-4.2356 0-6.3521-1.8356-1.0885-3.6906-2.1478-5.5614-3.176z" fill="#c74545" stroke="#c74545" stroke-width=".6"/>
	</g>
</svg>
