<?xml version="1.0" encoding="UTF-8" standalone="no"?>
<svg
   xmlns:dc="http://purl.org/dc/elements/1.1/"
   xmlns:cc="http://creativecommons.org/ns#"
   xmlns:rdf="http://www.w3.org/1999/02/22-rdf-syntax-ns#"
   xmlns:svg="http://www.w3.org/2000/svg"
   xmlns="http://www.w3.org/2000/svg"
   xmlns:sodipodi="http://sodipodi.sourceforge.net/DTD/sodipodi-0.dtd"
   xmlns:inkscape="http://www.inkscape.org/namespaces/inkscape"
   version="1.1"
   x="0px"
   y="0px"
   width="512px"
   height="512px"
   viewBox="0 0 512 512"
   enable-background="new 0 0 512 512"
   xml:space="preserve"
   id="svg4136"
   inkscape:version="0.91 r13725"
   sodipodi:docname="github.svg"><metadata
     id="metadata4144"><rdf:RDF><cc:Work
         rdf:about=""><dc:format>image/svg+xml</dc:format><dc:type
           rdf:resource="http://purl.org/dc/dcmitype/StillImage" /><dc:title></dc:title></cc:Work></rdf:RDF></metadata><defs
     id="defs4142" /><sodipodi:namedview
     pagecolor="#ffffff"
     bordercolor="#666666"
     borderopacity="1"
     objecttolerance="10"
     gridtolerance="10"
     guidetolerance="10"
     inkscape:pageopacity="0"
     inkscape:pageshadow="2"
     inkscape:window-width="1842"
     inkscape:window-height="1051"
     id="namedview4140"
     showgrid="false"
     inkscape:zoom="1.1849563"
     inkscape:cx="442.64227"
     inkscape:cy="312.52028"
     inkscape:window-x="69"
     inkscape:window-y="-9"
     inkscape:window-maximized="1"
     inkscape:current-layer="svg4136" /><g
     id="5151e0c8492e5103c096af88a5006e1e"
     transform="translate(51.677936,-0.00101725)"
     style="fill:#222222;fill-opacity:1"><path
       id="XMLID_1_"
       display="inline"
       d="m 14.494611,169.06399 c 0,-43.45035 13.530592,-59.84081 31.710096,-82.99592 -13.90266,-49.518828 4.987275,-83.3679947 4.987275,-83.3679947 0,0 29.211921,-6.0555134 84.437528,33.4887657 29.93272,-12.821458 109.7369,-13.889696 147.49214,-2.846908 23.17974,-15.320929 65.56055,-37.0577721 82.67182,-30.9776269 4.62558,7.4608177 14.60013,29.1859929 6.04385,76.9391159 5.81956,10.471073 35.98953,32.780928 36.11269,95.840718 -0.49782,23.25493 -2.91044,42.8903 -7.38693,59.50374 -10.07669,28.89464 -0.65301,2.5004 -7.31043,20.53119 -20.0217,43.98577 -61.08407,60.39956 -127.46525,67.22644 21.51386,13.54226 27.68216,30.52777 27.68216,76.49185 0,45.96149 -0.62098,52.12979 -0.47189,62.6981 0.22428,17.3498 25.64162,25.65458 24.69783,31.2382 -0.94508,5.57325 -21.26495,4.67614 -30.76501,1.35734 -26.9108,-9.37561 -24.22595,-31.76195 -24.22595,-31.76195 l -0.89452,-61.45484 c 0,0 1.8409,-33.0791 -10.37125,-33.0791 l 0,100.59075 c 0,21.8613 15.2963,28.50278 15.2963,36.58588 0,13.89099 -27.95441,-1.31715 -36.56125,-9.98622 -13.13778,-13.18186 -11.64432,-41.13497 -11.32151,-63.24518 0.29817,-21.3531 -0.19835,-68.04836 -0.19835,-68.04836 l -8.91539,0.18798 c 0,0 3.65587,102.00902 -4.70077,120.59819 -10.80554,23.86424 -43.39979,32.07309 -43.39979,21.20272 0,-7.31303 8.03254,-4.98598 12.47273,-21.37514 3.79198,-13.94156 2.49947,-117.94056 2.49947,-117.94056 0,0 -10.44515,6.18127 -10.44515,25.65458 0,8.91539 -0.24891,59.83952 -0.24891,74.9997 0,19.06365 -27.07285,29.91846 -40.08099,29.91846 -6.59093,0 -14.78551,-0.32151 -14.78551,-3.81533 0,-8.81685 24.76006,-13.99211 24.76006,-32.33366 0,-15.90431 -0.34873,-56.8163 -0.34873,-56.8163 0,0 -12.48569,2.13648 -30.29313,2.13648 -44.89195,0 -59.09408,-28.65058 -65.84706,-44.68064 -8.792227,-20.87863 -20.195416,-30.68983 -32.3077386,-38.52531 -7.43618602,-4.81226 -9.1526278,-10.4957 -0.5470834,-12.11232 39.743925,-7.48545 49.90386,45.06697 76.441295,53.43527 18.939197,5.98292 43.288297,3.39529 55.400627,-4.43889 1.60495,-16.056 13.17019,-29.93273 22.80767,-37.24446 C 93.615579,316.16331 53.596815,292.72299 32.854316,255.04165 25.057042,238.53079 14.72987,220.87901 14.494611,169.06399 Z"
       inkscape:connector-curvature="0"
       style="display:inline;fill:#222222;fill-opacity:1"
       sodipodi:nodetypes="cccccccccccsccccccsscccccsccssssscscccccccc" /></g></svg>