<svg xmlns="http://www.w3.org/2000/svg" xmlns:xlink="http://www.w3.org/1999/xlink" viewBox="0 0 136 28"><g transform="translate(0 3.5)"><path d="M 0 21 L 0 0 L 135.947 0 L 135.947 21 Z" fill="transparent"></path><path d="M 3.253 17.44 C 2.258 17.02 1.473 16.412 0.894 15.618 C 0.315 14.828 0.017 13.892 0 12.815 L 3.824 12.815 C 3.874 13.538 4.135 14.112 4.601 14.532 C 5.067 14.952 5.709 15.165 6.527 15.165 C 7.346 15.165 8.013 14.965 8.492 14.57 C 8.966 14.175 9.206 13.655 9.206 13.014 C 9.206 12.49 9.042 12.062 8.723 11.725 C 8.4 11.388 7.997 11.122 7.51 10.931 C 7.027 10.739 6.36 10.523 5.507 10.286 C 4.349 9.949 3.413 9.616 2.691 9.288 C 1.969 8.959 1.347 8.464 0.827 7.799 C 0.311 7.133 0.05 6.243 0.05 5.128 C 0.05 4.084 0.315 3.173 0.84 2.4 C 1.364 1.626 2.107 1.031 3.06 0.62 C 4.013 0.208 5.1 0 6.326 0 C 8.16 0 9.655 0.441 10.801 1.327 C 11.947 2.213 12.581 3.444 12.702 5.029 L 8.773 5.029 C 8.74 4.421 8.479 3.922 7.997 3.523 C 7.514 3.128 6.872 2.928 6.07 2.928 C 5.373 2.928 4.815 3.103 4.399 3.46 C 3.984 3.814 3.774 4.33 3.774 5.004 C 3.774 5.474 3.929 5.869 4.244 6.181 C 4.559 6.493 4.949 6.746 5.415 6.938 C 5.881 7.133 6.54 7.354 7.392 7.607 C 8.547 7.944 9.491 8.281 10.222 8.618 C 10.952 8.955 11.582 9.462 12.111 10.136 C 12.635 10.81 12.9 11.696 12.9 12.79 C 12.9 13.734 12.652 14.607 12.161 15.418 C 11.665 16.225 10.944 16.87 9.991 17.352 C 9.038 17.831 7.909 18.072 6.599 18.072 C 5.356 18.072 4.24 17.86 3.245 17.44 Z" fill="rgb(44,28,95)"></path><path d="M 30.148 0.254 L 24.128 11.754 L 24.128 17.897 L 20.556 17.897 L 20.556 11.754 L 14.511 0.254 L 18.541 0.254 L 22.37 8.314 L 26.169 0.254 Z" fill="rgb(44,28,95)"></path><path d="M 47.951 17.893 L 44.378 17.893 L 36.294 5.79 L 36.294 17.893 L 32.721 17.893 L 32.721 0.229 L 36.294 0.229 L 44.378 12.361 L 44.378 0.229 L 47.951 0.229 Z" fill="rgb(44,28,95)"></path><path d="M 77.104 0.254 L 77.104 11.172 C 77.104 12.37 77.418 13.28 78.048 13.913 C 78.678 14.545 79.559 14.861 80.701 14.861 C 81.843 14.861 82.75 14.545 83.379 13.913 C 84.009 13.28 84.324 12.366 84.324 11.172 L 84.324 0.254 L 87.921 0.254 L 87.921 11.147 C 87.921 12.648 87.594 13.913 86.939 14.948 C 86.284 15.984 85.407 16.766 84.311 17.286 C 83.216 17.81 81.994 18.068 80.651 18.068 C 79.308 18.068 78.12 17.806 77.041 17.286 C 75.962 16.762 75.106 15.984 74.476 14.948 C 73.846 13.913 73.531 12.644 73.531 11.147 L 73.531 0.254 Z" fill="rgb(44,28,95)"></path><path d="M 95.444 3.107 L 95.444 7.528 L 101.438 7.528 L 101.438 10.332 L 95.444 10.332 L 95.444 15.007 L 102.202 15.007 L 102.202 17.889 L 91.871 17.889 L 91.871 0.229 L 102.202 0.229 L 102.202 3.111 L 95.444 3.111 Z" fill="rgb(44,28,95)"></path><path d="M 115.135 17.893 L 111.206 11.018 L 109.523 11.018 L 109.523 17.893 L 105.95 17.893 L 105.95 0.254 L 112.633 0.254 C 114.01 0.254 115.185 0.495 116.151 0.973 C 117.121 1.452 117.847 2.1 118.334 2.92 C 118.821 3.739 119.06 4.65 119.06 5.661 C 119.06 6.825 118.72 7.874 118.04 8.809 C 117.36 9.745 116.348 10.39 115.005 10.743 L 119.265 17.897 L 115.135 17.897 Z M 109.523 8.364 L 112.507 8.364 C 113.477 8.364 114.199 8.131 114.673 7.67 C 115.147 7.208 115.387 6.563 115.387 5.736 C 115.387 4.908 115.147 4.301 114.673 3.852 C 114.199 3.402 113.473 3.182 112.507 3.182 L 109.523 3.182 Z" fill="rgb(44,28,95)"></path><path d="M 135.947 0.254 L 129.928 11.754 L 129.928 17.897 L 126.356 17.897 L 126.356 11.754 L 120.311 0.254 L 124.341 0.254 L 128.165 8.314 L 131.964 0.254 Z" fill="rgb(44,28,95)"></path><path d="M 61.052 6.971 L 60.435 6.971 C 59.971 6.971 59.595 7.343 59.595 7.803 L 59.595 10.319 C 59.595 10.778 59.971 11.151 60.435 11.151 L 61.052 11.151 C 61.515 11.151 61.891 10.778 61.891 10.319 L 61.891 7.803 C 61.891 7.343 61.515 6.971 61.052 6.971 Z" fill="rgb(158,119,237)"></path><path d="M 10.23 8.618 C 9.499 8.281 8.555 7.944 7.401 7.607 C 6.548 7.354 5.889 7.133 5.423 6.938 C 4.958 6.742 4.563 6.493 4.252 6.181 C 3.937 5.869 3.782 5.478 3.782 5.004 C 3.782 4.33 3.992 3.814 4.408 3.46 C 4.823 3.107 5.381 2.928 6.078 2.928 C 6.876 2.928 7.518 3.128 8.005 3.523 C 8.488 3.918 8.748 4.421 8.782 5.029 L 12.711 5.029 C 12.593 3.444 11.959 2.209 10.809 1.327 C 9.663 0.441 8.169 0 6.334 0 C 5.109 0 4.021 0.208 3.069 0.62 C 2.116 1.031 1.377 1.626 0.848 2.4 C 0.315 3.178 0.05 4.084 0.05 5.128 C 0.05 6.239 0.311 7.129 0.827 7.794 C 1.343 8.46 1.965 8.955 2.691 9.283 C 3.413 9.612 4.353 9.945 5.507 10.282 C 6.355 10.519 7.027 10.731 7.51 10.926 C 7.992 11.122 8.4 11.384 8.723 11.721 C 9.046 12.058 9.206 12.486 9.206 13.01 C 9.206 13.651 8.966 14.171 8.492 14.566 C 8.018 14.961 7.363 15.16 6.527 15.16 C 5.692 15.16 5.071 14.948 4.601 14.528 C 4.135 14.108 3.874 13.534 3.824 12.81 L 0 12.81 C 0.017 13.888 0.315 14.823 0.894 15.614 C 1.473 16.404 2.258 17.011 3.253 17.436 C 4.248 17.856 5.365 18.068 6.607 18.068 C 7.917 18.068 9.046 17.826 9.999 17.348 C 10.952 16.87 11.674 16.225 12.169 15.414 C 12.66 14.607 12.908 13.73 12.908 12.785 C 12.908 11.692 12.643 10.806 12.119 10.132 C 11.59 9.458 10.96 8.955 10.23 8.614 Z" fill="rgb(44,28,95)"></path><path d="M 22.37 8.314 L 18.541 0.254 L 14.511 0.254 L 20.556 11.75 L 20.556 17.893 L 24.128 17.893 L 24.128 11.75 L 30.148 0.254 L 26.169 0.254 Z" fill="rgb(44,28,95)"></path><path d="M 44.378 12.357 L 36.294 0.229 L 32.725 0.229 L 32.725 17.893 L 36.294 17.893 L 36.294 5.79 L 44.378 17.893 L 47.951 17.893 L 47.951 0.229 L 44.378 0.229 Z" fill="rgb(44,28,95)"></path><path d="M 68.851 13.305 C 69.523 12.016 69.858 10.589 69.858 9.021 C 69.858 7.304 69.456 5.756 68.645 4.384 C 67.839 3.011 66.74 1.938 65.354 1.16 C 64.288 0.566 63.13 0.2 61.887 0.062 L 61.887 3.29 C 62.5 3.398 63.071 3.594 63.583 3.889 C 64.397 4.359 65.035 5.037 65.497 5.923 C 65.955 6.809 66.186 7.84 66.186 9.017 C 66.186 10.194 65.955 11.234 65.497 12.124 C 65.04 13.018 64.401 13.705 63.583 14.183 C 62.764 14.661 61.824 14.903 60.754 14.903 C 59.683 14.903 58.734 14.661 57.907 14.183 C 57.085 13.705 56.443 13.018 55.981 12.124 C 55.523 11.23 55.292 10.194 55.292 9.017 C 55.292 7.84 55.523 6.805 55.981 5.923 C 56.438 5.037 57.081 4.359 57.907 3.889 C 58.432 3.589 59.012 3.394 59.637 3.286 L 59.637 0.062 C 58.399 0.2 57.24 0.566 56.161 1.16 C 54.768 1.934 53.66 3.011 52.845 4.384 C 52.031 5.756 51.619 7.304 51.619 9.021 C 51.619 10.739 52.026 12.311 52.845 13.684 C 53.66 15.056 54.768 16.13 56.161 16.907 C 57.555 17.681 59.087 18.072 60.754 18.072 C 61.534 18.072 62.303 17.98 63.05 17.793 L 65.753 21.004 L 70.19 21.004 L 66.11 16.454 C 67.264 15.647 68.179 14.595 68.851 13.309 Z" fill="rgb(44,28,95)"></path><path d="M 84.324 11.172 C 84.324 12.37 84.009 13.28 83.379 13.913 C 82.75 14.545 81.856 14.861 80.701 14.861 C 79.547 14.861 78.678 14.545 78.048 13.913 C 77.418 13.28 77.104 12.366 77.104 11.172 L 77.104 0.254 L 73.531 0.254 L 73.531 11.147 C 73.531 12.648 73.846 13.913 74.476 14.948 C 75.106 15.984 75.958 16.766 77.041 17.286 C 78.12 17.81 79.324 18.068 80.651 18.068 C 81.977 18.068 83.216 17.806 84.311 17.286 C 85.407 16.762 86.284 15.984 86.939 14.948 C 87.594 13.913 87.921 12.644 87.921 11.147 L 87.921 0.254 L 84.324 0.254 Z" fill="rgb(44,28,95)"></path><path d="M 91.871 17.893 L 102.202 17.893 L 102.202 15.011 L 95.444 15.011 L 95.444 10.336 L 101.438 10.336 L 101.438 7.532 L 95.444 7.532 L 95.444 3.107 L 102.202 3.107 L 102.202 0.229 L 91.871 0.229 Z" fill="rgb(44,28,95)"></path><path d="M 118.04 8.809 C 118.72 7.874 119.06 6.825 119.06 5.661 C 119.06 4.65 118.816 3.735 118.334 2.92 C 117.851 2.105 117.121 1.456 116.151 0.973 C 115.182 0.491 114.01 0.254 112.633 0.254 L 105.95 0.254 L 105.95 17.893 L 109.523 17.893 L 109.523 11.018 L 111.206 11.018 L 115.135 17.893 L 119.265 17.893 L 115.005 10.739 C 116.348 10.386 117.36 9.741 118.04 8.805 Z M 112.507 8.364 L 109.523 8.364 L 109.523 3.186 L 112.507 3.186 C 113.477 3.186 114.199 3.411 114.673 3.856 C 115.147 4.301 115.387 4.929 115.387 5.74 C 115.387 6.551 115.147 7.212 114.673 7.674 C 114.199 8.136 113.473 8.369 112.507 8.369 Z" fill="rgb(44,28,95)"></path><path d="M 131.968 0.254 L 128.165 8.314 L 124.341 0.254 L 120.311 0.254 L 126.356 11.75 L 126.356 17.893 L 129.928 17.893 L 129.928 11.75 L 135.947 0.254 Z" fill="rgb(44,28,95)"></path></g></svg>
